<?xml version="1.0" encoding="utf-8"?>
<!-- Generator: Adobe Illustrator 23.0.4, SVG Export Plug-In . SVG Version: 6.00 Build 0)  -->
<svg version="1.1" id="Layer_1" xmlns="http://www.w3.org/2000/svg" xmlns:xlink="http://www.w3.org/1999/xlink" x="0px" y="0px"
	 viewBox="0 0 872.6 87" style="enable-background:new 0 0 872.6 87;" xml:space="preserve">
<style type="text/css">
	.st0{fill:#FFFFFF;}
</style>
<g>
	<polygon class="st0" points="417.3,0 391.2,0 370.8,33.8 365.8,33.8 365.8,0 342.8,0 342.8,87 365.6,87 365.6,53.2 370.5,53.2 
		392.1,87 419.2,87 390.3,42.8 	"/>
	<polygon class="st0" points="487.4,0 487.4,33.8 455.9,33.8 455.9,0 433.1,0 433.1,87 455.9,87 455.9,53.2 487.4,53.2 487.4,87 
		510.1,87 510.1,0 	"/>
	<rect x="193.8" class="st0" width="22.8" height="87"/>
	<path class="st0" d="M297.8,0v32.1c0,11.3,0.3,18.3,0.3,18.3h-0.7c0,0-1.9-3.8-6.8-10.4L260.7,0h-21.5v87h22.7V57.2
		c0-13-0.9-19.8-0.9-19.8h0.8c0,0,2.2,4.7,7.8,12L298.5,87h21.7V0H297.8z"/>
	<path class="st0" d="M613.7,44.4c0-23.7-10.1-39-27.7-44.4h-30.8c-17.5,5.4-27.7,20.7-27.7,44.4c0,21.7,8.4,36.3,23.7,42.6H590
		C605,80.8,613.7,66.2,613.7,44.4z M570.6,70.8c-13.2,0-19.3-10.2-19.3-26.3s6.3-26.4,19.3-26.4s19.3,10.2,19.3,26.4
		S583.8,70.8,570.6,70.8z"/>
	<path class="st0" d="M686.9,86.8c10.3-4.2,17.1-12.9,17.1-28.2V0h-22.6v52c0,11.7-1.9,19.5-14.8,19.5c-13.1,0-15-7.8-15-19.3V0
		h-22.8l0.2,58.8c0,15.3,6.6,23.9,16.9,28.2"/>
	<path class="st0" d="M770.2,87c9.2-3.8,15.3-11.1,15.3-23.3c0-17.4-9-24-29.2-30.1c-9.7-2.6-13.9-5.1-13.9-10.3
		c0-5.1,3.8-6.8,8.7-6.8c5.5,0,11.1,3.2,11.8,10.3l22.6-6.1C784.4,9.6,777.6,3,768,0l-32.7,0.2l0,0l0,0c-10.1,3.3-17.4,11-17.4,25.1
		c0,14.4,7.3,22.9,29.9,29.9c10.7,3.3,13.8,5.4,13.8,10.6s-4.5,7.3-10.4,7.3c-8,0-14.3-5.7-16-13.7l-20.7,9.7
		c2.8,8.8,8,14.4,15,17.7"/>
	<polygon class="st0" points="825.9,69.1 825.9,53.1 860,53.1 860,34.1 825.9,34.1 825.9,19.3 864.5,19.3 864.5,0 803,0 803,87 
		864.5,87 864.5,69.1 	"/>
	<polygon class="st0" points="148.5,0 148.3,0 148.3,33.8 116.8,33.8 116.8,0 94.2,0 94.2,87 116.8,87 116.8,53.2 148.3,53.2 
		148.3,87 171.2,87 171.2,0 	"/>
	<polygon class="st0" points="81.3,19.3 81.3,0 10.5,0 10.5,19.3 34.2,19.3 34.2,87 56.9,87 56.9,19.3 	"/>
</g>
</svg>
