<?xml version="1.0" encoding="utf-8"?>
<!-- Generator: Adobe Illustrator 23.0.4, SVG Export Plug-In . SVG Version: 6.00 Build 0)  -->
<svg version="1.1" id="Layer_1" xmlns="http://www.w3.org/2000/svg" xmlns:xlink="http://www.w3.org/1999/xlink" x="0px" y="0px"
	 viewBox="0 0 87 867.2" style="enable-background:new 0 0 87 867.2;" xml:space="preserve">
<style type="text/css">
	.st0{fill:#FFFFFF;}
</style>
<g>
	<polygon class="st0" points="0,460.4 0,486.5 33.8,506.9 33.8,511.9 0,511.9 0,534.9 87,534.9 87,512.1 53.2,512.1 53.2,507.2 
		87,485.6 87,458.5 42.8,487.4 	"/>
	<polygon class="st0" points="0,390.3 33.8,390.3 33.8,421.8 0,421.8 0,444.6 87,444.6 87,421.8 53.2,421.8 53.2,390.3 87,390.3 
		87,367.6 0,367.6 	"/>
	<rect y="661.1" class="st0" width="87" height="22.8"/>
	<path class="st0" d="M0,579.9h32.1c11.3,0,18.3-0.3,18.3-0.3v0.7c0,0-3.8,1.9-10.4,6.8L0,617v21.5h87v-22.7H57.2
		c-13,0-19.8,0.9-19.8,0.9v-0.8c0,0,4.7-2.2,12-7.8L87,579.2v-21.7H0V579.9z"/>
	<path class="st0" d="M44.4,264c-23.7,0-39,10.1-44.4,27.7v30.8c5.4,17.5,20.7,27.7,44.4,27.7c21.7,0,36.3-8.4,42.6-23.7v-38.8
		C80.8,272.7,66.2,264,44.4,264z M70.8,307.1c0,13.2-10.2,19.3-26.3,19.3s-26.4-6.3-26.4-19.3s10.2-19.3,26.4-19.3
		S70.8,293.9,70.8,307.1z"/>
	<path class="st0" d="M86.8,190.8c-4.2-10.3-12.9-17.1-28.2-17.1H0v22.6h52c11.7,0,19.5,1.9,19.5,14.8c0,13.1-7.8,15-19.3,15H0v22.8
		l58.8-0.2c15.3,0,23.9-6.6,28.2-16.9"/>
	<path class="st0" d="M87,107.5c-3.8-9.2-11.1-15.3-23.3-15.3c-17.4,0-24,9-30.1,29.2c-2.6,9.7-5.1,13.9-10.3,13.9
		c-5.1,0-6.8-3.8-6.8-8.7c0-5.5,3.2-11.1,10.3-11.8l-6.1-22.6C9.6,93.3,3,100.1,0,109.7l0.2,32.7l0,0l0,0
		c3.3,10.1,11,17.4,25.1,17.4c14.4,0,22.9-7.3,29.9-29.9c3.3-10.7,5.4-13.8,10.6-13.8s7.3,4.5,7.3,10.4c0,8-5.7,14.3-13.7,16
		l9.7,20.7c8.8-2.8,14.4-8,17.7-15"/>
	<polygon class="st0" points="69.1,51.8 53.1,51.8 53.1,17.7 34.1,17.7 34.1,51.8 19.3,51.8 19.3,13.2 0,13.2 0,74.7 87,74.7 
		87,13.2 69.1,13.2 	"/>
	<polygon class="st0" points="0,729.2 0,729.4 33.8,729.4 33.8,760.9 0,760.9 0,783.5 87,783.5 87,760.9 53.2,760.9 53.2,729.4 
		87,729.4 87,706.5 0,706.5 	"/>
	<polygon class="st0" points="19.3,796.4 0,796.4 0,867.2 19.3,867.2 19.3,843.5 87,843.5 87,820.8 19.3,820.8 	"/>
</g>
</svg>
