<?xml version="1.0" encoding="utf-8"?>
<!-- Generator: Adobe Illustrator 24.0.0, SVG Export Plug-In . SVG Version: 6.00 Build 0)  -->
<svg version="1.1" id="Layer_1" xmlns="http://www.w3.org/2000/svg" xmlns:xlink="http://www.w3.org/1999/xlink" x="0px" y="0px"
	 viewBox="0 0 87 900" style="enable-background:new 0 0 87 900;" xml:space="preserve">
<style type="text/css">
	.st0{fill:#FFFFFF;}
</style>
<g>
	<polygon class="st0" points="0,470.2 0,496.3 33.8,516.7 33.8,521.7 0,521.7 0,544.7 87,544.7 87,521.9 53.2,521.9 53.2,517 
		87,495.4 87,468.3 42.8,497.2 	"/>
	<polygon class="st0" points="0,400.1 33.8,400.1 33.8,431.6 0,431.6 0,454.4 87,454.4 87,431.6 53.2,431.6 53.2,400.1 87,400.1 
		87,377.4 0,377.4 	"/>
	<rect y="670.9" class="st0" width="87" height="22.8"/>
	<path class="st0" d="M0,589.7h32.1c11.3,0,18.3-0.3,18.3-0.3v0.7c0,0-3.8,1.9-10.4,6.8L0,626.8v21.5h87v-22.7H57.2
		c-13,0-19.8,0.9-19.8,0.9v-0.8c0,0,4.7-2.2,12-7.8L87,589v-21.7H0V589.7z"/>
	<path class="st0" d="M44.4,273.8c-23.7,0-39,10.1-44.4,27.7v30.8C5.4,349.8,20.7,360,44.4,360c21.7,0,36.3-8.4,42.6-23.7v-38.8
		C80.8,282.5,66.2,273.8,44.4,273.8z M70.8,316.9c0,13.2-10.2,19.3-26.3,19.3s-26.4-6.3-26.4-19.3s10.2-19.3,26.4-19.3
		S70.8,303.7,70.8,316.9z"/>
	<path class="st0" d="M86.8,200.6c-4.2-10.3-12.9-17.1-28.2-17.1H0v22.6h52c11.7,0,19.5,1.9,19.5,14.8c0,13.1-7.8,15-19.3,15H0v22.8
		l58.8-0.2c15.3,0,23.9-6.6,28.2-16.9"/>
	<path class="st0" d="M87,117.3c-3.8-9.2-11.1-15.3-23.3-15.3c-17.4,0-24,9-30.1,29.2c-2.6,9.7-5.1,13.9-10.3,13.9
		c-5.1,0-6.8-3.8-6.8-8.7c0-5.5,3.2-11.1,10.3-11.8L20.7,102C9.6,103.1,3,109.9,0,119.5l0.2,32.7l0,0l0,0
		c3.3,10.1,11,17.4,25.1,17.4c14.4,0,22.9-7.3,29.9-29.9c3.3-10.7,5.4-13.8,10.6-13.8s7.3,4.5,7.3,10.4c0,8-5.7,14.3-13.7,16
		l9.7,20.7c8.8-2.8,14.4-8,17.7-15"/>
	<polygon class="st0" points="69.1,61.6 53.1,61.6 53.1,27.5 34.1,27.5 34.1,61.6 19.3,61.6 19.3,23 0,23 0,84.5 87,84.5 87,23 
		69.1,23 	"/>
	<polygon class="st0" points="0,739 0,739.2 33.8,739.2 33.8,770.7 0,770.7 0,793.3 87,793.3 87,770.7 53.2,770.7 53.2,739.2 
		87,739.2 87,716.3 0,716.3 	"/>
	<polygon class="st0" points="19.3,806.2 0,806.2 0,877 19.3,877 19.3,853.3 87,853.3 87,830.6 19.3,830.6 	"/>
</g>
</svg>
